<svg width="32" height="32" viewBox="0 0 32 32" fill="none" xmlns="http://www.w3.org/2000/svg">
<rect x="0.5" y="0.5" width="31" height="31" rx="15.5" fill="white" stroke="#EAEAEA"/>
<path fill-rule="evenodd" clip-rule="evenodd" d="M23 22H20.4V17.4506C20.4 16.2026 19.8495 15.5063 18.8621 15.5063C17.7877 15.5063 17.15 16.2319 17.15 17.4506V22H14.55V13.55H17.15V14.5002C17.15 14.5002 17.9657 13.0688 19.8039 13.0688C21.6428 13.0688 23 14.191 23 16.5128V22ZM11.5873 12.1986C10.7105 12.1986 10 11.4823 10 10.599C10 9.71627 10.7105 9 11.5873 9C12.4635 9 13.1739 9.71627 13.1739 10.599C13.1746 11.4823 12.4635 12.1986 11.5873 12.1986ZM10 22H13.25V13.55H10V22Z" fill="#646464"/>
</svg>
